<?xml version="1.0" encoding="UTF-8"?>
<!DOCTYPE svg PUBLIC "-//W3C//DTD SVG 1.1//EN" "http://www.w3.org/Graphics/SVG/1.1/DTD/svg11.dtd">
<!-- Creator: CorelDRAW 2020 (64-Bit) -->
<svg xmlns="http://www.w3.org/2000/svg" xml:space="preserve" width="588px" height="200px" version="1.1" style="shape-rendering:geometricPrecision; text-rendering:geometricPrecision; image-rendering:optimizeQuality; fill-rule:evenodd; clip-rule:evenodd"
viewBox="0 0 620.94 211.41"
 xmlns:xlink="http://www.w3.org/1999/xlink"
 xmlns:xodm="http://www.corel.com/coreldraw/odm/2003">
 <defs>
  <style type="text/css">
   <![CDATA[
    .fil0 {fill:black}
    .fil1 {fill:black;fill-rule:nonzero}
    .fil2 {fill:#D3F124;fill-rule:nonzero}
   ]]>
  </style>
 </defs>
 <g id="Capa_x0020_1">
  <metadata id="CorelCorpID_0Corel-Layer"/>
  <g id="_1567694912432">
   <path class="fil0" d="M199.05 81.48l-9.08 0c-1.67,0 -3.03,1.36 -3.03,3.03l0 42.39c0,1.66 1.36,3.03 3.03,3.03l9.08 0c1.67,0 3.03,-1.37 3.03,-3.03l0 -8.05 12.51 0 15.68 -26.29 -28.19 0 0 -8.05c0,-1.67 -1.36,-3.03 -3.03,-3.03z"/>
   <g>
    <g>
     <rect class="fil0" x="147.43" y="30.85" width="31.19" height="149.7" rx="6.24" ry="10.01"/>
     <rect class="fil0" x="100.12" y="43.33" width="31.19" height="124.75" rx="6.24" ry="8.34"/>
     <rect class="fil0" x="52.81" y="55.8" width="31.19" height="99.8" rx="6.24" ry="6.67"/>
    </g>
    <rect class="fil0" y="92.56" width="46.2" height="26.29" rx="6.39" ry="1.14"/>
   </g>
  </g>
  <path class="fil1" d="M283.4 138.87l-0.69 1.26 4.83 0 4.24 0c1.47,0 2.62,0.29 3.46,0.88 0.85,0.59 1.27,1.57 1.27,2.93 0,1.57 -0.49,2.8 -1.45,3.68 -0.97,0.87 -2.33,1.31 -4.08,1.31l-5.19 0 -5.6 0 3.86 4.99 0.59 0.76 0.3 -1.49 0.85 -4.26 1.75 -8.8 1.18 -5.91 -5.32 4.65z"/>
  <path class="fil1" d="M172.17 211.41l128.26 -211.41 66.71 0 47.74 211.41 -67.58 0 -6.71 -36.85 -76.69 0 -20.12 36.85 -71.61 0zm96.03 -43.92l7.52 -37.59 16.7 0c5.05,0 8.94,1.09 11.68,3.28 2.74,2.18 4.11,5.24 4.11,9.18 0,3.15 -0.78,5.92 -2.34,8.32 -1.56,2.4 -3.76,4.26 -6.61,5.59 -2.84,1.32 -6.2,1.98 -10.06,1.98l-12.14 0 6.77 -5.53 -2.95 14.77 -12.68 0zm15.31 -13.26l-4.46 -5.75 10.79 0c1.76,0 3.12,-0.44 4.08,-1.31 0.97,-0.88 1.45,-2.11 1.45,-3.68 0,-1.36 -0.42,-2.34 -1.26,-2.93 -0.84,-0.59 -1.99,-0.88 -3.46,-0.88l-9.83 0 6.77 -5.91 -4.08 20.46zm32.75 13.26l5.53 -27.76 -11.01 0 1.99 -9.83 34.68 0 -1.98 9.83 -11.01 0 -5.53 27.76 -12.67 0zm14.98 -44.27l-9.82 -53.97 0 0 -29.48 53.97 39.3 0z"/>
  <path class="fil2" d="M268.2 167.49l7.52 -37.59 16.7 0c5.05,0 8.94,1.09 11.68,3.28 2.74,2.18 4.11,5.24 4.11,9.18 0,3.15 -0.78,5.92 -2.34,8.32 -1.56,2.4 -3.76,4.26 -6.61,5.59 -2.84,1.32 -6.2,1.98 -10.06,1.98l-12.14 0 6.77 -5.53 -2.95 14.77 -12.68 0zm15.31 -13.26l-4.46 -5.75 10.79 0c1.76,0 3.12,-0.44 4.08,-1.31 0.97,-0.88 1.45,-2.11 1.45,-3.68 0,-1.36 -0.42,-2.34 -1.26,-2.93 -0.84,-0.59 -1.99,-0.88 -3.46,-0.88l-9.83 0 6.77 -5.91 -4.08 20.46zm32.75 13.26l5.53 -27.76 -11.01 0 1.99 -9.83 34.68 0 -1.98 9.83 -11.01 0 -5.53 27.76 -12.67 0z"/>
  <g id="_1567694912336">
   <path class="fil0" d="M421.89 81.48l9.09 0c1.66,0 3.02,1.36 3.02,3.03l0 42.39c0,1.66 -1.36,3.03 -3.02,3.03l-9.09 0c-1.66,0 -3.03,-1.37 -3.03,-3.03l0 -8.05 -12.5 0 -6.13 -26.29 18.63 0 0 -8.05c0,-1.67 1.37,-3.03 3.03,-3.03z"/>
   <g>
    <g>
     <rect class="fil0" x="442.33" y="30.85" width="31.19" height="149.7" rx="6.24" ry="10.01"/>
     <rect class="fil0" x="489.64" y="43.33" width="31.19" height="124.75" rx="6.24" ry="8.34"/>
     <rect class="fil0" x="536.95" y="55.8" width="31.19" height="99.8" rx="6.24" ry="6.67"/>
    </g>
    <rect class="fil0" x="574.74" y="92.56" width="46.2" height="26.29" rx="6.39" ry="1.14"/>
   </g>
  </g>
 </g>
</svg>
