<?xml version="1.0" encoding="UTF-8"?>
<!DOCTYPE svg PUBLIC "-//W3C//DTD SVG 1.1//EN" "http://www.w3.org/Graphics/SVG/1.1/DTD/svg11.dtd">
<!-- Creator: CorelDRAW 2020 (64-Bit) -->
<svg xmlns="http://www.w3.org/2000/svg" xml:space="preserve" width="876px" height="142px" version="1.1" style="shape-rendering:geometricPrecision; text-rendering:geometricPrecision; image-rendering:optimizeQuality; fill-rule:evenodd; clip-rule:evenodd"
viewBox="0 0 862.23 139.56"
 xmlns:xlink="http://www.w3.org/1999/xlink"
 xmlns:xodm="http://www.corel.com/coreldraw/odm/2003">
 <defs>
  <style type="text/css">
   <![CDATA[
    .fil0 {fill:#D3F124}
    .fil1 {fill:#D3F124;fill-rule:nonzero}
    .fil2 {fill:#E6E6E6;fill-rule:nonzero}
   ]]>
  </style>
 </defs>
 <g id="Capa_x0020_1">
  <metadata id="CorelCorpID_0Corel-Layer"/>
  <path class="fil0" d="M185.58 47.2l-8.47 0c-1.56,0 -2.83,1.27 -2.83,2.82l0 39.52c0,1.56 1.27,2.83 2.83,2.83l8.47 0c1.55,0 2.82,-1.27 2.82,-2.83l0 -7.5 11.66 0 14.62 -24.51 -26.28 0 0 -7.51c0,-1.55 -1.27,-2.82 -2.82,-2.82z"/>
  <g id="_2359291533392">
   <g>
    <rect class="fil0" x="137.45" width="29.08" height="139.56" rx="5.82" ry="9.33"/>
    <rect class="fil0" x="93.34" y="11.63" width="29.08" height="116.3" rx="5.82" ry="7.78"/>
    <rect class="fil0" x="49.23" y="23.26" width="29.08" height="93.04" rx="5.82" ry="6.22"/>
   </g>
   <rect class="fil0" y="57.53" width="43.08" height="24.51" rx="5.95" ry="1.06"/>
  </g>
  <g id="_2359291535120">
   <path class="fil1" d="M208.62 90.25l51.98 -85.68 27.04 0 19.34 85.68 -27.39 0 -13.17 -72.34 10.73 0 -39.51 72.34 -29.02 0zm24.01 -14.93l10.95 -20.81 37.53 0 3.03 20.81 -51.51 0z"/>
   <polygon id="1" class="fil1" points="311.41,90.25 327.73,4.57 355.23,4.57 343.23,67.85 380.06,67.85 375.74,90.25 "/>
   <path id="2" class="fil1" d="M423.88 92.21c-8.47,0 -15.54,-1.69 -21.22,-5.08 -5.67,-3.39 -9.69,-8.12 -12.06,-14.2 -2.37,-6.08 -2.78,-13.16 -1.22,-21.24l8.97 -47.12 27.51 0 -8.86 46.63c-0.54,3.02 -0.74,5.63 -0.58,7.84 0.15,2.2 0.68,4.04 1.57,5.51 0.89,1.46 2.12,2.55 3.67,3.24 1.56,0.69 3.42,1.04 5.6,1.04 2.64,0 4.91,-0.57 6.81,-1.71 1.91,-1.15 3.5,-3.02 4.78,-5.64 1.28,-2.61 2.31,-6.03 3.09,-10.28l8.86 -46.63 27.04 0 -9.21 48.35c-2.41,12.81 -7.34,22.56 -14.8,29.25 -7.46,6.69 -17.45,10.04 -29.95,10.04z"/>
   <path id="3" class="fil1" d="M474.11 90.25l16.31 -85.68 36.6 0c10.8,0 19.15,2.47 25.05,7.4 5.91,4.94 8.86,11.86 8.86,20.75 0,7.18 -1.69,13.47 -5.07,18.85 -3.38,5.39 -8.15,9.59 -14.33,12.61 -6.18,3.02 -13.46,4.53 -21.85,4.53l-26.34 0 14.68 -12.12 -6.41 33.66 -27.5 0zm49.88 0l-16.78 -31.21 28.32 0 17.01 31.21 -28.55 0zm-16.67 -30.23l-9.67 -13.1 23.42 0c3.81,0 6.76,-1 8.86,-3 2.1,-2 3.15,-4.79 3.15,-8.38 0,-3.11 -0.91,-5.33 -2.74,-6.67 -1.83,-1.35 -4.33,-2.02 -7.52,-2.02l-21.33 0 14.69 -13.47 -8.86 46.64z"/>
   <path id="4" class="fil1" d="M552.08 90.25l51.98 -85.68 27.03 0 19.35 85.68 -27.39 0 -13.17 -72.34 10.72 0 -39.5 72.34 -29.02 0zm24 -14.93l10.96 -20.81 37.53 0 3.03 20.81 -51.52 0z"/>
   <path class="fil2" d="M208.62 134.74l5.96 -29.81 10.69 0c3.38,0 6,0.74 7.86,2.22 1.85,1.47 2.78,3.55 2.78,6.21 0,2.56 -0.56,4.72 -1.68,6.5 -1.12,1.77 -2.72,3.13 -4.79,4.07 -2.07,0.93 -4.53,1.4 -7.37,1.4l-9.83 0 1.7 -1.49 -2.21 10.9 -3.11 0zm5.24 -10.64l-1.11 -1.54 9.37 0c3.38,0 5.99,-0.75 7.85,-2.25 1.86,-1.51 2.79,-3.72 2.79,-6.65 0,-1.96 -0.66,-3.45 -2,-4.47 -1.33,-1.02 -3.25,-1.53 -5.75,-1.53l-9.2 0 1.67 -1.58 -3.62 18.02z"/>
   <path id="1" class="fil2" d="M244.86 118.26l15.75 0 -0.51 2.68 -15.76 0 0.52 -2.68zm-2.43 13.76l17.93 0 -0.56 2.72 -21.03 0 5.96 -29.81 20.44 0 -0.56 2.73 -17.33 0 -4.85 24.36z"/>
   <path id="2" class="fil2" d="M267.25 134.74l5.97 -29.81 10.73 0c3.38,0 5.99,0.74 7.85,2.22 1.86,1.47 2.79,3.55 2.79,6.21 0,2.53 -0.56,4.68 -1.68,6.46 -1.12,1.77 -2.72,3.13 -4.79,4.06 -2.07,0.94 -4.53,1.41 -7.37,1.41l-9.83 0 1.66 -1.45 -2.17 10.9 -3.16 0zm20.4 0l-6.09 -10.81 3.37 0 6.13 10.81 -3.41 0zm-15.16 -10.64l-1.06 -1.54 9.37 0c3.37,0 5.99,-0.75 7.85,-2.25 1.86,-1.51 2.79,-3.72 2.79,-6.65 0,-1.96 -0.66,-3.45 -2,-4.47 -1.33,-1.02 -3.24,-1.53 -5.71,-1.53l-9.24 0 1.62 -1.53 -3.62 17.97z"/>
   <path id="3" class="fil2" d="M306.73 135c-1.45,0 -2.87,-0.17 -4.28,-0.49 -1.41,-0.33 -2.68,-0.78 -3.81,-1.36 -1.14,-0.59 -2.04,-1.23 -2.73,-1.94l1.54 -2.47c0.68,0.71 1.52,1.33 2.53,1.87 1.01,0.54 2.12,0.96 3.34,1.26 1.22,0.3 2.45,0.44 3.67,0.44 1.76,0 3.3,-0.22 4.62,-0.68 1.32,-0.45 2.35,-1.12 3.08,-2 0.74,-0.88 1.11,-1.94 1.11,-3.19 0,-1 -0.28,-1.8 -0.85,-2.41 -0.57,-0.61 -1.31,-1.11 -2.22,-1.49 -0.9,-0.38 -1.91,-0.73 -3.02,-1.04 -1.11,-0.31 -2.21,-0.66 -3.32,-1.02 -1.11,-0.37 -2.12,-0.83 -3.04,-1.37 -0.93,-0.54 -1.67,-1.25 -2.22,-2.13 -0.55,-0.88 -0.83,-1.98 -0.83,-3.32 0,-1.87 0.51,-3.48 1.53,-4.83 1.03,-1.35 2.43,-2.38 4.22,-3.09 1.79,-0.71 3.85,-1.06 6.17,-1.06 1.76,0 3.46,0.21 5.09,0.64 1.63,0.42 3.02,1.06 4.15,1.91l-1.32 2.56c-1.08,-0.8 -2.31,-1.4 -3.7,-1.81 -1.39,-0.41 -2.85,-0.62 -4.39,-0.62 -1.73,0 -3.25,0.24 -4.55,0.72 -1.31,0.49 -2.32,1.18 -3.05,2.07 -0.72,0.89 -1.08,1.97 -1.08,3.21 0,1 0.27,1.81 0.83,2.43 0.55,0.63 1.29,1.14 2.21,1.53 0.92,0.4 1.94,0.76 3.05,1.09 1.1,0.33 2.21,0.67 3.32,1.02 1.1,0.36 2.12,0.8 3.04,1.32 0.92,0.53 1.67,1.21 2.24,2.05 0.56,0.83 0.85,1.91 0.85,3.21 0,1.9 -0.53,3.53 -1.58,4.88 -1.05,1.35 -2.49,2.37 -4.32,3.06 -1.83,0.7 -3.92,1.05 -6.28,1.05z"/>
   <path id="4" class="fil2" d="M338.11 135c-2.92,0 -5.42,-0.52 -7.49,-1.56 -2.07,-1.03 -3.64,-2.48 -4.71,-4.34 -1.06,-1.86 -1.59,-4.03 -1.59,-6.49 0,-2.45 0.41,-4.75 1.23,-6.9 0.82,-2.16 2.02,-4.07 3.6,-5.73 1.58,-1.66 3.47,-2.96 5.68,-3.9 2.22,-0.93 4.7,-1.4 7.46,-1.4 2.95,0 5.46,0.52 7.51,1.55 2.06,1.04 3.62,2.49 4.69,4.35 1.06,1.85 1.59,4.02 1.59,6.49 0,2.44 -0.41,4.74 -1.23,6.9 -0.82,2.16 -2.02,4.06 -3.6,5.73 -1.57,1.66 -3.47,2.96 -5.68,3.89 -2.22,0.94 -4.7,1.41 -7.46,1.41zm0.3 -2.81c2.22,0 4.22,-0.39 6.01,-1.17 1.78,-0.78 3.32,-1.87 4.6,-3.26 1.27,-1.39 2.25,-2.99 2.93,-4.79 0.68,-1.81 1.03,-3.73 1.03,-5.77 0,-1.93 -0.42,-3.62 -1.26,-5.07 -0.84,-1.45 -2.07,-2.58 -3.68,-3.41 -1.62,-0.82 -3.64,-1.23 -6.05,-1.23 -2.21,0 -4.22,0.39 -6.01,1.17 -1.78,0.78 -3.31,1.87 -4.57,3.26 -1.27,1.39 -2.25,2.99 -2.94,4.79 -0.7,1.8 -1.05,3.72 -1.05,5.77 0,1.9 0.42,3.58 1.26,5.04 0.84,1.47 2.07,2.61 3.69,3.43 1.61,0.82 3.63,1.24 6.04,1.24z"/>
   <polygon id="5" class="fil2" points="359.96,134.74 365.92,104.93 368.48,104.93 383.51,130.95 382.53,130.78 387.68,104.93 390.79,104.93 384.83,134.74 382.27,134.74 367.24,108.72 368.22,108.89 363.07,134.74 "/>
   <path id="6" class="fil2" d="M389.81 134.74l19.59 -29.81 3.11 0 7.66 29.81 -3.15 0 -6.98 -28.06 1.28 0 -18.1 28.06 -3.41 0zm6.94 -7.96l1.45 -2.56 17.33 0 0.47 2.56 -19.25 0z"/>
   <polygon id="7" class="fil2" points="425.11,134.74 431.07,104.93 434.18,104.93 428.77,132.02 445.47,132.02 444.91,134.74 "/>
   <polygon id="8" class="fil2" points="467.14,134.74 472.55,107.66 462.03,107.66 462.59,104.93 486.69,104.93 486.13,107.66 475.66,107.66 470.25,134.74 "/>
   <path id="9" class="fil2" d="M485.79 134.74l5.97 -29.81 10.73 0c3.38,0 5.99,0.74 7.85,2.22 1.86,1.47 2.79,3.55 2.79,6.21 0,2.53 -0.56,4.68 -1.68,6.46 -1.12,1.77 -2.72,3.13 -4.79,4.06 -2.07,0.94 -4.53,1.41 -7.37,1.41l-9.83 0 1.66 -1.45 -2.17 10.9 -3.16 0zm20.4 0l-6.09 -10.81 3.37 0 6.13 10.81 -3.41 0zm-15.16 -10.64l-1.06 -1.54 9.37 0c3.37,0 5.99,-0.75 7.85,-2.25 1.86,-1.51 2.79,-3.72 2.79,-6.65 0,-1.96 -0.67,-3.45 -2,-4.47 -1.33,-1.02 -3.24,-1.53 -5.71,-1.53l-9.24 0 1.62 -1.53 -3.62 17.97z"/>
   <path id="10" class="fil2" d="M511.81 134.74l19.59 -29.81 3.11 0 7.67 29.81 -3.16 0 -6.98 -28.06 1.28 0 -18.1 28.06 -3.41 0zm6.94 -7.96l1.45 -2.56 17.33 0 0.47 2.56 -19.25 0z"/>
   <polygon id="11" class="fil2" points="547.11,134.74 553.08,104.93 556.18,104.93 550.22,134.74 "/>
   <polygon id="12" class="fil2" points="559.98,134.74 565.94,104.93 568.49,104.93 583.52,130.95 582.55,130.78 587.7,104.93 590.81,104.93 584.84,134.74 582.29,134.74 567.26,108.72 568.24,108.89 563.08,134.74 "/>
   <path id="13" class="fil2" d="M600.69 118.26l15.75 0 -0.51 2.68 -15.75 0 0.51 -2.68zm-2.43 13.76l17.93 0 -0.56 2.72 -21.03 0 5.96 -29.81 20.44 0 -0.56 2.73 -17.33 0 -4.85 24.36z"/>
   <path id="14" class="fil2" d="M623.08 134.74l5.97 -29.81 10.73 0c3.38,0 5.99,0.74 7.85,2.22 1.86,1.47 2.79,3.55 2.79,6.21 0,2.53 -0.56,4.68 -1.68,6.46 -1.12,1.77 -2.72,3.13 -4.79,4.06 -2.07,0.94 -4.53,1.41 -7.37,1.41l-9.83 0 1.66 -1.45 -2.17 10.9 -3.16 0zm20.4 0l-6.09 -10.81 3.37 0 6.13 10.81 -3.41 0zm-15.16 -10.64l-1.06 -1.54 9.37 0c3.37,0 5.99,-0.75 7.85,-2.25 1.86,-1.51 2.79,-3.72 2.79,-6.65 0,-1.96 -0.67,-3.45 -2,-4.47 -1.33,-1.02 -3.24,-1.53 -5.71,-1.53l-9.24 0 1.62 -1.53 -3.62 17.97z"/>
  </g>
  <g id="_2359291534976">
   <path class="fil0" d="M676.66 47.2l8.46 0c1.56,0 2.83,1.27 2.83,2.82l0 39.52c0,1.56 -1.27,2.83 -2.83,2.83l-8.46 0c-1.56,0 -2.83,-1.27 -2.83,-2.83l0 -7.5 -11.66 0 -5.71 -24.51 17.37 0 0 -7.51c0,-1.55 1.27,-2.82 2.83,-2.82z"/>
   <g>
    <g>
     <rect class="fil0" x="695.71" width="29.08" height="139.56" rx="5.82" ry="9.33"/>
     <rect class="fil0" x="739.82" y="11.63" width="29.08" height="116.3" rx="5.82" ry="7.78"/>
     <rect class="fil0" x="783.92" y="23.26" width="29.08" height="93.04" rx="5.82" ry="6.22"/>
    </g>
    <rect class="fil0" x="819.15" y="57.53" width="43.08" height="24.51" rx="5.95" ry="1.06"/>
   </g>
  </g>
 </g>
</svg>
