<?xml version="1.0" encoding="UTF-8"?>
<!DOCTYPE svg PUBLIC "-//W3C//DTD SVG 1.1//EN" "http://www.w3.org/Graphics/SVG/1.1/DTD/svg11.dtd">
<!-- Creator: CorelDRAW 2020 (64-Bit) -->
<svg xmlns="http://www.w3.org/2000/svg" xml:space="preserve" width="1257px" height="308px" version="1.1" style="shape-rendering:geometricPrecision; text-rendering:geometricPrecision; image-rendering:optimizeQuality; fill-rule:evenodd; clip-rule:evenodd"
viewBox="0 0 1256.1 307.82"
 xmlns:xlink="http://www.w3.org/1999/xlink"
 xmlns:xodm="http://www.corel.com/coreldraw/odm/2003">
 <defs>
  <style type="text/css">
   <![CDATA[
    .fil0 {fill:#D3F124}
    .fil2 {fill:black;fill-rule:nonzero}
    .fil1 {fill:#D3F124;fill-rule:nonzero}
   ]]>
  </style>
 </defs>
 <g id="Capa_x0020_1">
  <metadata id="CorelCorpID_0Corel-Layer"/>
  <g id="_1567693432576">
   <path class="fil0" d="M1067.82 189.24l8.59 0c1.58,0 2.87,1.29 2.87,2.86l0 40.1c0,1.57 -1.29,2.86 -2.87,2.86l-8.59 0c-1.57,0 -2.86,-1.29 -2.86,-2.86l0 -7.62 -11.83 0 -14.84 0 0 -24.86 26.67 0 0 -7.62c0,-1.57 1.29,-2.86 2.86,-2.86zm25.23 -47.89l17.7 0c3.25,0 5.9,2.66 5.9,5.9l0 129.8c0,3.24 -2.65,5.9 -5.9,5.9l-17.7 0c-3.24,0 -5.9,-2.66 -5.9,-5.9l0 -129.8c0,-3.24 2.66,-5.9 5.9,-5.9zm44.75 11.8l17.7 0c3.25,0 5.9,2.66 5.9,5.9l0 106.2c0,3.24 -2.65,5.9 -5.9,5.9l-17.7 0c-3.24,0 -5.9,-2.66 -5.9,-5.9l0 -106.2c0,-3.24 2.66,-5.9 5.9,-5.9zm44.75 11.8l17.7 0c3.25,0 5.9,2.66 5.9,5.9l0 82.6c0,3.24 -2.65,5.9 -5.9,5.9l-17.7 0c-3.24,0 -5.9,-2.66 -5.9,-5.9l0 -82.6c0,-3.24 2.66,-5.9 5.9,-5.9zm33.29 34.77l36.83 0c1.89,0 3.43,1.54 3.43,3.43l0 18c0,1.89 -1.54,3.43 -3.43,3.43l-36.83 0c-1.9,0 -3.44,-1.54 -3.44,-3.43l0 -18c0,-1.89 1.54,-3.43 3.44,-3.43z"/>
   <path class="fil0" d="M188.28 189.24l-8.59 0c-1.58,0 -2.87,1.29 -2.87,2.86l0 40.1c0,1.57 1.29,2.86 2.87,2.86l8.59 0c1.58,0 2.86,-1.29 2.86,-2.86l0 -7.62 11.84 0 14.83 0 0 -24.86 -26.67 0 0 -7.62c0,-1.57 -1.28,-2.86 -2.86,-2.86zm-25.23 -47.89l-17.7 0c-3.25,0 -5.9,2.66 -5.9,5.9l0 129.8c0,3.24 2.65,5.9 5.9,5.9l17.7 0c3.24,0 5.9,-2.66 5.9,-5.9l0 -129.8c0,-3.24 -2.66,-5.9 -5.9,-5.9zm-44.75 11.8l-17.7 0c-3.24,0 -5.9,2.66 -5.9,5.9l0 106.2c0,3.24 2.66,5.9 5.9,5.9l17.7 0c3.24,0 5.9,-2.66 5.9,-5.9l0 -106.2c0,-3.24 -2.66,-5.9 -5.9,-5.9zm-44.75 11.8l-17.7 0c-3.24,0 -5.9,2.66 -5.9,5.9l0 82.6c0,3.24 2.66,5.9 5.9,5.9l17.7 0c3.25,0 5.9,-2.66 5.9,-5.9l0 -82.6c0,-3.24 -2.65,-5.9 -5.9,-5.9zm-33.28 34.77l-36.83 0c-1.89,0 -3.44,1.54 -3.44,3.43l0 18c0,1.89 1.55,3.43 3.44,3.43l36.83 0c1.89,0 3.43,-1.54 3.43,-3.43l0 -18c0,-1.89 -1.54,-3.43 -3.43,-3.43z"/>
  </g>
  <path class="fil1" d="M202.44 250.63l12.01 -63.08 150.15 -180.82 100.09 0 -145.74 180.82 -44.44 -13.88 217.01 0 -14.81 76.96 -274.27 0zm135.73 50.46l9.61 -50.46 19.22 -76.96 8.41 -44.99 87.28 0 -32.83 172.41 -91.69 0zm275.47 6.73c-21.89,0 -40.98,-4.56 -57.26,-13.67 -16.28,-9.11 -28.89,-22.22 -37.84,-39.32 -8.94,-17.1 -13.41,-37.85 -13.41,-62.24 0,-27.75 3.74,-53.33 11.21,-76.74 7.48,-23.41 18.02,-43.8 31.63,-61.18 13.62,-17.39 29.7,-30.84 48.25,-40.37 18.55,-9.54 38.77,-14.3 60.66,-14.3 21.89,0 40.97,4.49 57.25,13.46 16.29,8.97 28.9,22.07 37.84,39.31 8.94,17.25 13.41,38.06 13.41,62.45 0,27.75 -3.73,53.34 -11.21,76.74 -7.47,23.41 -18.01,43.81 -31.63,61.19 -13.61,17.38 -29.69,30.84 -48.24,40.37 -18.55,9.53 -38.77,14.3 -60.66,14.3zm9.61 -79.48c8.27,0 15.41,-3.86 21.42,-11.57 6,-7.71 10.94,-17.45 14.81,-29.22 3.87,-11.78 6.74,-23.9 8.61,-36.38 1.87,-12.47 2.8,-23.61 2.8,-33.43 0,-14.57 -2.2,-24.6 -6.6,-30.06 -4.41,-5.47 -10.08,-8.2 -17.02,-8.2 -8.27,0 -15.42,3.85 -21.42,11.56 -6.01,7.71 -10.94,17.45 -14.81,29.23 -3.88,11.77 -6.74,23.9 -8.61,36.37 -1.87,12.48 -2.81,23.62 -2.81,33.43 0,14.58 2.27,24.6 6.81,30.07 4.54,5.47 10.14,8.2 16.82,8.2zm141.33 22.29l12.01 -63.08 150.15 -180.82 100.1 0 -145.74 180.82 -44.45 -13.88 217.01 0 -14.81 76.96 -274.27 0zm135.74 50.46l9.6 -50.46 19.22 -76.96 8.41 -44.99 87.29 0 -32.84 172.41 -91.68 0z"/>
  <rect class="fil0" x="353.98" y="173.67" width="548.14" height="76.95"/>
  <path class="fil2" d="M248.38 208.46l18.29 0 -1.36 6.84 -18.28 0 1.35 -6.84zm-2.49 15.63l20.72 0 -1.46 7.05 -29.41 0 7.6 -37.98 28.7 0 -1.46 7.05 -19.92 0 -4.77 23.88z"/>
  <path id="1" class="fil2" d="M272.15 231.14l7.6 -37.98 15.46 0c4.74,0 8.4,1.03 10.99,3.09 2.58,2.06 3.88,4.96 3.88,8.68 0,3.19 -0.75,5.95 -2.26,8.28 -1.5,2.33 -3.63,4.13 -6.4,5.4 -2.77,1.26 -6.03,1.9 -9.79,1.9l-12.37 0 4.61 -3.86 -2.88 14.49 -8.84 0zm24.42 0l-7.76 -13.78 9.22 0 7.81 13.78 -9.27 0zm-12.92 -13.46l-3.04 -4.17 11.34 0c2.93,0 5.2,-0.66 6.81,-1.98 1.61,-1.32 2.42,-3.25 2.42,-5.78 0,-1.85 -0.63,-3.21 -1.88,-4.1 -1.24,-0.88 -2.99,-1.33 -5.23,-1.33l-10.69 0 4.61 -4.28 -4.34 21.64z"/>
  <path id="2" class="fil2" d="M312.03 231.14l7.6 -37.98 15.46 0c4.74,0 8.4,1.03 10.99,3.09 2.58,2.06 3.88,4.96 3.88,8.68 0,3.19 -0.75,5.95 -2.26,8.28 -1.5,2.33 -3.63,4.13 -6.4,5.4 -2.77,1.26 -6.03,1.9 -9.79,1.9l-12.37 0 4.61 -3.86 -2.88 14.49 -8.84 0zm24.41 0l-7.75 -13.78 9.22 0 7.81 13.78 -9.28 0zm-12.91 -13.46l-3.04 -4.17 11.34 0c2.93,0 5.2,-0.66 6.81,-1.98 1.61,-1.32 2.42,-3.25 2.42,-5.78 0,-1.85 -0.63,-3.21 -1.88,-4.1 -1.24,-0.88 -2.99,-1.33 -5.23,-1.33l-10.69 0 4.61 -4.28 -4.34 21.64z"/>
  <path id="3" class="fil2" d="M371.6 231.79c-3.83,0 -7.13,-0.69 -9.9,-2.09 -2.76,-1.39 -4.89,-3.33 -6.37,-5.8 -1.49,-2.48 -2.23,-5.35 -2.23,-8.6 0,-3.26 0.56,-6.27 1.69,-9.04 1.12,-2.76 2.72,-5.17 4.8,-7.21 2.08,-2.05 4.55,-3.65 7.43,-4.81 2.87,-1.15 6.07,-1.73 9.57,-1.73 3.84,0 7.14,0.69 9.91,2.09 2.76,1.39 4.89,3.32 6.37,5.8 1.49,2.48 2.23,5.35 2.23,8.6 0,3.26 -0.56,6.27 -1.68,9.04 -1.13,2.76 -2.73,5.17 -4.81,7.21 -2.08,2.05 -4.55,3.65 -7.43,4.8 -2.88,1.16 -6.07,1.74 -9.58,1.74zm0.76 -7.49c2.14,0 4.06,-0.38 5.78,-1.16 1.72,-0.78 3.18,-1.86 4.37,-3.23 1.19,-1.38 2.11,-2.96 2.74,-4.75 0.63,-1.79 0.95,-3.68 0.95,-5.67 0,-1.88 -0.4,-3.53 -1.2,-4.96 -0.79,-1.43 -1.96,-2.54 -3.49,-3.34 -1.54,-0.8 -3.43,-1.19 -5.67,-1.19 -2.14,0 -4.06,0.39 -5.76,1.16 -1.7,0.78 -3.15,1.86 -4.36,3.23 -1.22,1.38 -2.14,2.96 -2.77,4.75 -0.63,1.79 -0.95,3.68 -0.95,5.67 0,1.88 0.41,3.53 1.22,4.96 0.81,1.43 1.99,2.54 3.53,3.34 1.53,0.8 3.41,1.19 5.61,1.19z"/>
  <path id="4" class="fil2" d="M397.7 231.14l7.6 -37.98 15.46 0c4.74,0 8.4,1.03 10.99,3.09 2.58,2.06 3.88,4.96 3.88,8.68 0,3.19 -0.75,5.95 -2.25,8.28 -1.51,2.33 -3.64,4.13 -6.41,5.4 -2.76,1.26 -6.03,1.9 -9.79,1.9l-12.37 0 4.61 -3.86 -2.87 14.49 -8.85 0zm24.42 0l-7.76 -13.78 9.22 0 7.82 13.78 -9.28 0zm-12.92 -13.46l-3.03 -4.17 11.34 0c2.93,0 5.2,-0.66 6.81,-1.98 1.6,-1.32 2.41,-3.25 2.41,-5.78 0,-1.85 -0.62,-3.21 -1.87,-4.1 -1.25,-0.88 -3,-1.33 -5.24,-1.33l-10.69 0 4.61 -4.28 -4.34 21.64z"/>
  <polygon id="5" class="fil2" points="499.98,231.14 507.57,193.16 514.85,193.16 531.18,220.67 528.3,220.51 533.73,193.16 542.41,193.16 534.81,231.14 527.6,231.14 511.21,203.63 514.14,203.79 508.66,231.14 "/>
  <path id="6" class="fil2" d="M563.51 231.79c-3.83,0 -7.13,-0.69 -9.9,-2.09 -2.77,-1.39 -4.89,-3.33 -6.37,-5.8 -1.49,-2.48 -2.23,-5.35 -2.23,-8.6 0,-3.26 0.56,-6.27 1.68,-9.04 1.13,-2.76 2.73,-5.17 4.81,-7.21 2.08,-2.05 4.55,-3.65 7.43,-4.81 2.88,-1.15 6.07,-1.73 9.57,-1.73 3.84,0 7.14,0.69 9.91,2.09 2.76,1.39 4.89,3.32 6.37,5.8 1.49,2.48 2.23,5.35 2.23,8.6 0,3.26 -0.56,6.27 -1.69,9.04 -1.12,2.76 -2.72,5.17 -4.8,7.21 -2.08,2.05 -4.55,3.65 -7.43,4.8 -2.88,1.16 -6.07,1.74 -9.58,1.74zm0.76 -7.49c2.14,0 4.06,-0.38 5.78,-1.16 1.72,-0.78 3.18,-1.86 4.37,-3.23 1.19,-1.38 2.11,-2.96 2.74,-4.75 0.63,-1.79 0.95,-3.68 0.95,-5.67 0,-1.88 -0.4,-3.53 -1.2,-4.96 -0.79,-1.43 -1.96,-2.54 -3.49,-3.34 -1.54,-0.8 -3.43,-1.19 -5.67,-1.19 -2.14,0 -4.06,0.39 -5.76,1.16 -1.7,0.78 -3.15,1.86 -4.36,3.23 -1.21,1.38 -2.14,2.96 -2.77,4.75 -0.63,1.79 -0.95,3.68 -0.95,5.67 0,1.88 0.41,3.53 1.22,4.96 0.81,1.43 1.99,2.54 3.53,3.34 1.53,0.8 3.41,1.19 5.61,1.19z"/>
  <path id="7" class="fil2" d="M604.97 231.14l7.59 -37.98 15.36 0c4.74,0 8.4,1.04 10.98,3.12 2.59,2.08 3.88,4.98 3.88,8.71 0,3.18 -0.74,5.96 -2.22,8.33 -1.48,2.37 -3.61,4.18 -6.38,5.45 -2.76,1.27 -6.05,1.9 -9.84,1.9l-12.32 0 4.67 -4.02 -2.88 14.49 -8.84 0zm11.5 -13.46l-3.09 -4.17 11.34 0c2.89,0 5.14,-0.66 6.75,-1.98 1.61,-1.32 2.42,-3.25 2.42,-5.78 0,-1.85 -0.62,-3.21 -1.85,-4.1 -1.23,-0.88 -2.97,-1.33 -5.21,-1.33l-10.69 0 4.67 -4.28 -4.34 21.64z"/>
  <path id="8" class="fil2" d="M637.25 231.14l24.52 -37.98 8.74 0 9.33 37.98 -8.79 0 -7.38 -33.64 3.48 0 -20.51 33.64 -9.39 0zm10.15 -8.14l3.58 -6.67 19.58 0 1.04 6.67 -24.2 0z"/>
  <path id="9" class="fil2" d="M703.23 231.79c-3.84,0 -7.16,-0.69 -9.96,-2.09 -2.8,-1.39 -4.97,-3.33 -6.51,-5.8 -1.54,-2.48 -2.31,-5.35 -2.31,-8.6 0,-3.22 0.57,-6.22 1.71,-9.01 1.14,-2.79 2.76,-5.2 4.86,-7.24 2.1,-2.05 4.61,-3.65 7.54,-4.81 2.93,-1.15 6.19,-1.73 9.77,-1.73 3.61,0 6.75,0.57 9.41,1.71 2.66,1.14 4.8,2.77 6.43,4.91l-6.29 5.1c-1.27,-1.52 -2.71,-2.61 -4.32,-3.26 -1.61,-0.65 -3.48,-0.97 -5.61,-0.97 -2.25,0 -4.26,0.37 -6.05,1.11 -1.79,0.74 -3.32,1.78 -4.59,3.12 -1.26,1.34 -2.24,2.9 -2.93,4.69 -0.69,1.79 -1.03,3.74 -1.03,5.83 0,1.92 0.42,3.59 1.25,5.02 0.83,1.43 2.07,2.54 3.72,3.34 1.64,0.8 3.66,1.19 6.05,1.19 1.8,0 3.54,-0.3 5.21,-0.92 1.66,-0.61 3.27,-1.57 4.82,-2.87l3.37 6.67c-1.92,1.48 -4.13,2.62 -6.65,3.42 -2.51,0.79 -5.14,1.19 -7.89,1.19zm6.83 -5.97l2.82 -14.27 8.03 0 -3.14 15.63 -7.71 -1.36z"/>
  <path id="10" class="fil2" d="M737.73 208.46l18.29 0 -1.36 6.84 -18.28 0 1.35 -6.84zm-2.49 15.63l20.72 0 -1.46 7.05 -29.41 0 7.6 -37.98 28.7 0 -1.46 7.05 -19.92 0 -4.77 23.88z"/>
  <path id="11" class="fil2" d="M774.74 231.79c-2.06,0 -4.06,-0.19 -6,-0.57 -1.93,-0.38 -3.69,-0.89 -5.26,-1.55 -1.57,-0.65 -2.9,-1.35 -3.99,-2.11l3.58 -6.78c1.2,0.83 2.47,1.54 3.83,2.14 1.35,0.6 2.77,1.05 4.26,1.36 1.48,0.3 2.96,0.46 4.45,0.46 1.62,0 3.02,-0.18 4.2,-0.55 1.18,-0.36 2.08,-0.86 2.71,-1.51 0.64,-0.66 0.95,-1.45 0.95,-2.39 0,-0.87 -0.34,-1.58 -1.03,-2.12 -0.69,-0.54 -1.58,-1 -2.68,-1.38 -1.11,-0.38 -2.33,-0.75 -3.67,-1.11 -1.34,-0.36 -2.68,-0.79 -4.04,-1.28 -1.36,-0.49 -2.58,-1.1 -3.69,-1.84 -1.1,-0.74 -1.99,-1.69 -2.68,-2.85 -0.69,-1.16 -1.03,-2.61 -1.03,-4.34 0,-2.61 0.71,-4.87 2.14,-6.78 1.43,-1.92 3.44,-3.41 6.05,-4.48 2.6,-1.07 5.66,-1.6 9.17,-1.6 2.57,0 4.99,0.28 7.27,0.84 2.28,0.56 4.23,1.37 5.86,2.41l-3.31 6.73c-1.45,-0.97 -3.06,-1.71 -4.83,-2.2 -1.77,-0.48 -3.6,-0.73 -5.48,-0.73 -1.7,0 -3.16,0.2 -4.37,0.6 -1.21,0.4 -2.13,0.95 -2.77,1.65 -0.63,0.71 -0.94,1.51 -0.94,2.42 0,0.9 0.33,1.63 1,2.2 0.67,0.56 1.56,1.03 2.68,1.41 1.13,0.38 2.36,0.75 3.69,1.11 1.34,0.36 2.68,0.78 4.02,1.25 1.34,0.47 2.57,1.06 3.69,1.79 1.12,0.72 2.02,1.63 2.71,2.74 0.69,1.1 1.03,2.48 1.03,4.15 0,2.6 -0.72,4.87 -2.17,6.81 -1.44,1.93 -3.48,3.43 -6.1,4.5 -2.62,1.07 -5.71,1.6 -9.25,1.6z"/>
  <path id="12" class="fil2" d="M823.79 210.25l18.28 0 -1.46 7.05 -18.23 0 1.41 -7.05zm-3.48 20.89l-8.84 0 7.6 -37.98 28.7 0 -1.47 7.05 -19.85 0 -6.14 30.93z"/>
  <path id="13" class="fil2" d="M865.46 231.79c-3.84,0 -7.14,-0.69 -9.91,-2.09 -2.76,-1.39 -4.89,-3.33 -6.37,-5.8 -1.48,-2.48 -2.22,-5.35 -2.22,-8.6 0,-3.26 0.56,-6.27 1.68,-9.04 1.12,-2.76 2.72,-5.17 4.8,-7.21 2.08,-2.05 4.56,-3.65 7.43,-4.81 2.88,-1.15 6.07,-1.73 9.58,-1.73 3.83,0 7.13,0.69 9.9,2.09 2.77,1.39 4.89,3.32 6.38,5.8 1.48,2.48 2.22,5.35 2.22,8.6 0,3.26 -0.56,6.27 -1.68,9.04 -1.12,2.76 -2.72,5.17 -4.8,7.21 -2.08,2.05 -4.56,3.65 -7.44,4.8 -2.87,1.16 -6.06,1.74 -9.57,1.74zm0.76 -7.49c2.13,0 4.06,-0.38 5.78,-1.16 1.71,-0.78 3.17,-1.86 4.36,-3.23 1.2,-1.38 2.11,-2.96 2.74,-4.75 0.64,-1.79 0.95,-3.68 0.95,-5.67 0,-1.88 -0.4,-3.53 -1.19,-4.96 -0.8,-1.43 -1.96,-2.54 -3.5,-3.34 -1.54,-0.8 -3.43,-1.19 -5.67,-1.19 -2.13,0 -4.05,0.39 -5.75,1.16 -1.7,0.78 -3.16,1.86 -4.37,3.23 -1.21,1.38 -2.13,2.96 -2.77,4.75 -0.63,1.79 -0.95,3.68 -0.95,5.67 0,1.88 0.41,3.53 1.22,4.96 0.82,1.43 1.99,2.54 3.53,3.34 1.54,0.8 3.41,1.19 5.62,1.19z"/>
  <path id="14" class="fil2" d="M909.46 231.79c-3.69,0 -6.76,-0.72 -9.22,-2.17 -2.46,-1.45 -4.19,-3.46 -5.19,-6.05 -0.99,-2.58 -1.14,-5.63 -0.46,-9.14l4.24 -21.27 8.84 0 -4.23 21.11c-0.33,1.7 -0.42,3.18 -0.27,4.44 0.14,1.27 0.51,2.32 1.11,3.15 0.6,0.83 1.42,1.45 2.47,1.85 1.05,0.39 2.28,0.59 3.69,0.59 1.77,0 3.31,-0.34 4.61,-1.03 1.3,-0.68 2.39,-1.77 3.25,-3.25 0.87,-1.49 1.54,-3.4 2.01,-5.75l4.23 -21.11 8.63 0 -4.29 21.65c-1.12,5.61 -3.31,9.84 -6.56,12.69 -3.26,2.86 -7.54,4.29 -12.86,4.29z"/>
  <polygon id="15" class="fil2" points="934.31,231.14 941.91,193.16 949.18,193.16 965.51,220.67 962.63,220.51 968.06,193.16 976.74,193.16 969.14,231.14 961.93,231.14 945.54,203.63 948.47,203.79 942.99,231.14 "/>
  <path id="16" class="fil2" d="M978.15 231.14l7.6 -37.98 15.89 0c3.91,0 7.26,0.64 10.07,1.93 2.8,1.28 4.94,3.11 6.43,5.48 1.48,2.36 2.22,5.18 2.22,8.43 0,3.37 -0.57,6.41 -1.71,9.12 -1.14,2.71 -2.75,5.04 -4.85,6.97 -2.1,1.94 -4.6,3.43 -7.49,4.48 -2.89,1.05 -6.1,1.57 -9.6,1.57l-18.56 0zm10.25 -7.22l8.58 0c3.07,0 5.69,-0.63 7.84,-1.9 2.15,-1.26 3.79,-2.98 4.93,-5.15 1.14,-2.17 1.71,-4.63 1.71,-7.38 0,-1.88 -0.39,-3.5 -1.19,-4.85 -0.8,-1.36 -2,-2.41 -3.61,-3.15 -1.61,-0.74 -3.61,-1.11 -5.99,-1.11l-7.54 0 -4.73 23.54z"/>
  <path id="17" class="fil2" d="M440.19 217.95l3.31 -24.79 10.09 0 -6.68 24.79 -6.72 0zm1.41 13.62c-1.45,0 -2.64,-0.44 -3.59,-1.33 -0.94,-0.88 -1.41,-1.96 -1.41,-3.22 0,-1.52 0.54,-2.77 1.6,-3.75 1.07,-0.97 2.36,-1.46 3.88,-1.46 1.45,0 2.64,0.42 3.56,1.27 0.92,0.85 1.38,1.91 1.38,3.18 0,0.97 -0.24,1.87 -0.73,2.68 -0.49,0.82 -1.14,1.46 -1.95,1.93 -0.82,0.47 -1.73,0.7 -2.74,0.7z"/>
  <path id="18" class="fil2" d="M455.87 217.95l3.31 -24.79 10.09 0 -6.68 24.79 -6.72 0zm1.41 13.62c-1.45,0 -2.64,-0.44 -3.58,-1.33 -0.94,-0.88 -1.41,-1.96 -1.41,-3.22 0,-1.52 0.53,-2.77 1.6,-3.75 1.06,-0.97 2.36,-1.46 3.88,-1.46 1.44,0 2.63,0.42 3.55,1.27 0.92,0.85 1.38,1.91 1.38,3.18 0,0.97 -0.24,1.87 -0.73,2.68 -0.49,0.82 -1.14,1.46 -1.95,1.93 -0.82,0.47 -1.73,0.7 -2.74,0.7z"/>
  <path id="19" class="fil2" d="M471.55 217.95l3.31 -24.79 10.09 0 -6.68 24.79 -6.72 0zm1.41 13.62c-1.45,0 -2.64,-0.44 -3.58,-1.33 -0.94,-0.88 -1.41,-1.96 -1.41,-3.22 0,-1.52 0.53,-2.77 1.6,-3.75 1.06,-0.97 2.36,-1.46 3.88,-1.46 1.44,0 2.63,0.42 3.55,1.27 0.92,0.85 1.38,1.91 1.38,3.18 0,0.97 -0.24,1.87 -0.73,2.68 -0.49,0.82 -1.14,1.46 -1.95,1.93 -0.82,0.47 -1.73,0.7 -2.74,0.7z"/>
 </g>
</svg>
